<svg width="245" height="65" viewBox="0 0 245 65" fill="none" xmlns="http://www.w3.org/2000/svg">
<path d="M0 7H5V58H0V7Z" fill="white"/>
<path d="M27.6709 19.8779H24.0908V27H20.8789V8.51562H27.3789C29.5117 8.51562 31.1579 8.99382 32.3174 9.9502C33.4769 10.9066 34.0566 12.2904 34.0566 14.1016C34.0566 15.3372 33.7562 16.374 33.1553 17.2119C32.5628 18.0413 31.7334 18.6803 30.667 19.1289L34.8184 26.835V27H31.3779L27.6709 19.8779ZM24.0908 17.3008H27.3916C28.4749 17.3008 29.3213 17.0299 29.9307 16.4883C30.54 15.9382 30.8447 15.1891 30.8447 14.2412C30.8447 13.251 30.5612 12.485 29.9941 11.9434C29.4355 11.4017 28.5977 11.1224 27.4805 11.1055H24.0908V17.3008ZM36.2275 20.0049C36.2275 18.6592 36.4941 17.4489 37.0273 16.374C37.5605 15.2907 38.3096 14.4613 39.2744 13.8857C40.2393 13.3018 41.348 13.0098 42.6006 13.0098C44.4541 13.0098 45.9564 13.6064 47.1074 14.7998C48.2669 15.9932 48.8932 17.5758 48.9863 19.5479L48.999 20.2715C48.999 21.6257 48.7367 22.8359 48.2119 23.9023C47.6956 24.9688 46.9508 25.7939 45.9775 26.3779C45.0127 26.9619 43.8955 27.2539 42.626 27.2539C40.6878 27.2539 39.1348 26.6107 37.9668 25.3242C36.8073 24.0293 36.2275 22.307 36.2275 20.1572V20.0049ZM39.3125 20.2715C39.3125 21.6849 39.6045 22.7936 40.1885 23.5977C40.7725 24.3932 41.585 24.791 42.626 24.791C43.667 24.791 44.4753 24.3848 45.0508 23.5723C45.6348 22.7598 45.9268 21.5706 45.9268 20.0049C45.9268 18.6169 45.6263 17.5166 45.0254 16.7041C44.4329 15.8916 43.6247 15.4854 42.6006 15.4854C41.5934 15.4854 40.7936 15.8874 40.2012 16.6914C39.6087 17.487 39.3125 18.6803 39.3125 20.2715ZM55.4736 9.9248V13.2637H57.8984V15.5488H55.4736V23.2168C55.4736 23.7415 55.5752 24.1224 55.7783 24.3594C55.9899 24.5879 56.3623 24.7021 56.8955 24.7021C57.251 24.7021 57.6107 24.6598 57.9746 24.5752V26.9619C57.2721 27.1566 56.5951 27.2539 55.9434 27.2539C53.5736 27.2539 52.3887 25.9463 52.3887 23.3311V15.5488H50.1289V13.2637H52.3887V9.9248H55.4736ZM66.3154 27.2539C64.3604 27.2539 62.7734 26.6403 61.5547 25.4131C60.3444 24.1774 59.7393 22.5355 59.7393 20.4873V20.1064C59.7393 18.7354 60.0016 17.5124 60.5264 16.4375C61.0596 15.3542 61.8044 14.512 62.7607 13.9111C63.7171 13.3102 64.7835 13.0098 65.96 13.0098C67.8304 13.0098 69.2734 13.6064 70.2891 14.7998C71.3132 15.9932 71.8252 17.6816 71.8252 19.8652V21.1094H62.8496C62.9427 22.2435 63.3193 23.1406 63.9795 23.8008C64.6481 24.4609 65.486 24.791 66.4932 24.791C67.9066 24.791 69.0576 24.2197 69.9463 23.0771L71.6094 24.6641C71.0592 25.485 70.3229 26.124 69.4004 26.5811C68.4863 27.0296 67.458 27.2539 66.3154 27.2539ZM65.9473 15.4854C65.1009 15.4854 64.4154 15.7816 63.8906 16.374C63.3743 16.9665 63.0443 17.7917 62.9004 18.8496H68.7783V18.6211C68.7106 17.5885 68.4355 16.8099 67.9531 16.2852C67.4707 15.752 66.8021 15.4854 65.9473 15.4854ZM77.5127 27H74.4277V13.2637H77.5127V27ZM74.2373 9.69629C74.2373 9.22233 74.3854 8.82878 74.6816 8.51562C74.9863 8.20247 75.418 8.0459 75.9766 8.0459C76.5352 8.0459 76.9668 8.20247 77.2715 8.51562C77.5762 8.82878 77.7285 9.22233 77.7285 9.69629C77.7285 10.1618 77.5762 10.5511 77.2715 10.8643C76.9668 11.1689 76.5352 11.3213 75.9766 11.3213C75.418 11.3213 74.9863 11.1689 74.6816 10.8643C74.3854 10.5511 74.2373 10.1618 74.2373 9.69629ZM88.0752 16.082C87.6689 16.0143 87.25 15.9805 86.8184 15.9805C85.4049 15.9805 84.4528 16.5221 83.9619 17.6055V27H80.877V13.2637H83.8223L83.8984 14.7998C84.6432 13.6064 85.6758 13.0098 86.9961 13.0098C87.4362 13.0098 87.8001 13.069 88.0879 13.1875L88.0752 16.082ZM88.9893 20.0049C88.9893 18.6592 89.2559 17.4489 89.7891 16.374C90.3223 15.2907 91.0713 14.4613 92.0361 13.8857C93.001 13.3018 94.1097 13.0098 95.3623 13.0098C97.2158 13.0098 98.7181 13.6064 99.8691 14.7998C101.029 15.9932 101.655 17.5758 101.748 19.5479L101.761 20.2715C101.761 21.6257 101.498 22.8359 100.974 23.9023C100.457 24.9688 99.7126 25.7939 98.7393 26.3779C97.7744 26.9619 96.6572 27.2539 95.3877 27.2539C93.4495 27.2539 91.8965 26.6107 90.7285 25.3242C89.569 24.0293 88.9893 22.307 88.9893 20.1572V20.0049ZM92.0742 20.2715C92.0742 21.6849 92.3662 22.7936 92.9502 23.5977C93.5342 24.3932 94.3467 24.791 95.3877 24.791C96.4287 24.791 97.237 24.3848 97.8125 23.5723C98.3965 22.7598 98.6885 21.5706 98.6885 20.0049C98.6885 18.6169 98.388 17.5166 97.7871 16.7041C97.1947 15.8916 96.3864 15.4854 95.3623 15.4854C94.3551 15.4854 93.5553 15.8874 92.9629 16.6914C92.3704 17.487 92.0742 18.6803 92.0742 20.2715ZM110.267 20.0303C110.267 17.9144 110.757 16.2174 111.739 14.9395C112.721 13.653 114.037 13.0098 115.688 13.0098C117.143 13.0098 118.32 13.5176 119.217 14.5332V7.5H122.302V27H119.509L119.356 25.5781C118.434 26.6953 117.202 27.2539 115.662 27.2539C114.054 27.2539 112.751 26.6064 111.752 25.3115C110.762 24.0166 110.267 22.2562 110.267 20.0303ZM113.352 20.2969C113.352 21.6934 113.618 22.7852 114.151 23.5723C114.693 24.3509 115.459 24.7402 116.449 24.7402C117.71 24.7402 118.633 24.1774 119.217 23.0518V17.1865C118.65 16.0863 117.736 15.5361 116.475 15.5361C115.476 15.5361 114.706 15.9339 114.164 16.7295C113.622 17.5166 113.352 18.7057 113.352 20.2969ZM131.569 27.2539C129.614 27.2539 128.027 26.6403 126.809 25.4131C125.598 24.1774 124.993 22.5355 124.993 20.4873V20.1064C124.993 18.7354 125.256 17.5124 125.78 16.4375C126.313 15.3542 127.058 14.512 128.015 13.9111C128.971 13.3102 130.037 13.0098 131.214 13.0098C133.084 13.0098 134.527 13.6064 135.543 14.7998C136.567 15.9932 137.079 17.6816 137.079 19.8652V21.1094H128.104C128.197 22.2435 128.573 23.1406 129.233 23.8008C129.902 24.4609 130.74 24.791 131.747 24.791C133.16 24.791 134.312 24.2197 135.2 23.0771L136.863 24.6641C136.313 25.485 135.577 26.124 134.654 26.5811C133.74 27.0296 132.712 27.2539 131.569 27.2539ZM131.201 15.4854C130.355 15.4854 129.669 15.7816 129.145 16.374C128.628 16.9665 128.298 17.7917 128.154 18.8496H134.032V18.6211C133.965 17.5885 133.689 16.8099 133.207 16.2852C132.725 15.752 132.056 15.4854 131.201 15.4854ZM157.062 18.748H149.47V24.4355H158.344V27H146.258V8.51562H158.255V11.1055H149.47V16.209H157.062V18.748ZM168.36 23.2676C168.36 22.7174 168.132 22.2985 167.675 22.0107C167.226 21.723 166.477 21.4691 165.428 21.249C164.378 21.029 163.502 20.7497 162.8 20.4111C161.259 19.6663 160.489 18.5872 160.489 17.1738C160.489 15.9889 160.989 14.9987 161.987 14.2031C162.986 13.4076 164.256 13.0098 165.796 13.0098C167.438 13.0098 168.762 13.416 169.77 14.2285C170.785 15.041 171.293 16.0947 171.293 17.3896H168.208C168.208 16.7972 167.988 16.3063 167.548 15.917C167.108 15.5192 166.524 15.3203 165.796 15.3203C165.119 15.3203 164.564 15.4769 164.133 15.79C163.71 16.1032 163.498 16.5221 163.498 17.0469C163.498 17.5208 163.697 17.889 164.095 18.1514C164.493 18.4137 165.297 18.6803 166.507 18.9512C167.717 19.2135 168.665 19.5309 169.351 19.9033C170.045 20.2673 170.557 20.7074 170.887 21.2236C171.225 21.7399 171.395 22.3662 171.395 23.1025C171.395 24.3382 170.882 25.3411 169.858 26.1113C168.834 26.873 167.493 27.2539 165.834 27.2539C164.708 27.2539 163.705 27.0508 162.825 26.6445C161.945 26.2383 161.259 25.6797 160.769 24.9688C160.278 24.2578 160.032 23.4919 160.032 22.6709H163.028C163.071 23.3988 163.346 23.9616 163.854 24.3594C164.361 24.7487 165.034 24.9434 165.872 24.9434C166.685 24.9434 167.302 24.791 167.726 24.4863C168.149 24.1732 168.36 23.7669 168.36 23.2676ZM177.958 9.9248V13.2637H180.383V15.5488H177.958V23.2168C177.958 23.7415 178.06 24.1224 178.263 24.3594C178.474 24.5879 178.847 24.7021 179.38 24.7021C179.735 24.7021 180.095 24.6598 180.459 24.5752V26.9619C179.757 27.1566 179.079 27.2539 178.428 27.2539C176.058 27.2539 174.873 25.9463 174.873 23.3311V15.5488H172.613V13.2637H174.873V9.9248H177.958ZM191.072 25.6543C190.167 26.7207 188.88 27.2539 187.213 27.2539C185.723 27.2539 184.593 26.818 183.823 25.9463C183.062 25.0745 182.681 23.8135 182.681 22.1631V13.2637H185.766V22.125C185.766 23.8685 186.489 24.7402 187.937 24.7402C189.435 24.7402 190.446 24.2028 190.971 23.1279V13.2637H194.056V27H191.148L191.072 25.6543ZM196.62 20.0303C196.62 17.9144 197.111 16.2174 198.093 14.9395C199.075 13.653 200.391 13.0098 202.041 13.0098C203.497 13.0098 204.673 13.5176 205.57 14.5332V7.5H208.655V27H205.862L205.71 25.5781C204.787 26.6953 203.556 27.2539 202.016 27.2539C200.408 27.2539 199.104 26.6064 198.105 25.3115C197.115 24.0166 196.62 22.2562 196.62 20.0303ZM199.705 20.2969C199.705 21.6934 199.972 22.7852 200.505 23.5723C201.047 24.3509 201.812 24.7402 202.803 24.7402C204.064 24.7402 204.986 24.1774 205.57 23.0518V17.1865C205.003 16.0863 204.089 15.5361 202.828 15.5361C201.829 15.5361 201.059 15.9339 200.518 16.7295C199.976 17.5166 199.705 18.7057 199.705 20.2969ZM211.296 20.0049C211.296 18.6592 211.562 17.4489 212.096 16.374C212.629 15.2907 213.378 14.4613 214.343 13.8857C215.308 13.3018 216.416 13.0098 217.669 13.0098C219.522 13.0098 221.025 13.6064 222.176 14.7998C223.335 15.9932 223.962 17.5758 224.055 19.5479L224.067 20.2715C224.067 21.6257 223.805 22.8359 223.28 23.9023C222.764 24.9688 222.019 25.7939 221.046 26.3779C220.081 26.9619 218.964 27.2539 217.694 27.2539C215.756 27.2539 214.203 26.6107 213.035 25.3242C211.876 24.0293 211.296 22.307 211.296 20.1572V20.0049ZM214.381 20.2715C214.381 21.6849 214.673 22.7936 215.257 23.5977C215.841 24.3932 216.653 24.791 217.694 24.791C218.735 24.791 219.544 24.3848 220.119 23.5723C220.703 22.7598 220.995 21.5706 220.995 20.0049C220.995 18.6169 220.695 17.5166 220.094 16.7041C219.501 15.8916 218.693 15.4854 217.669 15.4854C216.662 15.4854 215.862 15.8874 215.27 16.6914C214.677 17.487 214.381 18.6803 214.381 20.2715ZM234.376 23.2676C234.376 22.7174 234.147 22.2985 233.69 22.0107C233.242 21.723 232.493 21.4691 231.443 21.249C230.394 21.029 229.518 20.7497 228.815 20.4111C227.275 19.6663 226.505 18.5872 226.505 17.1738C226.505 15.9889 227.004 14.9987 228.003 14.2031C229.002 13.4076 230.271 13.0098 231.812 13.0098C233.453 13.0098 234.778 13.416 235.785 14.2285C236.801 15.041 237.309 16.0947 237.309 17.3896H234.224C234.224 16.7972 234.004 16.3063 233.563 15.917C233.123 15.5192 232.539 15.3203 231.812 15.3203C231.134 15.3203 230.58 15.4769 230.148 15.79C229.725 16.1032 229.514 16.5221 229.514 17.0469C229.514 17.5208 229.713 17.889 230.11 18.1514C230.508 18.4137 231.312 18.6803 232.522 18.9512C233.733 19.2135 234.681 19.5309 235.366 19.9033C236.06 20.2673 236.572 20.7074 236.902 21.2236C237.241 21.7399 237.41 22.3662 237.41 23.1025C237.41 24.3382 236.898 25.3411 235.874 26.1113C234.85 26.873 233.508 27.2539 231.85 27.2539C230.724 27.2539 229.721 27.0508 228.841 26.6445C227.961 26.2383 227.275 25.6797 226.784 24.9688C226.293 24.2578 226.048 23.4919 226.048 22.6709H229.044C229.086 23.3988 229.361 23.9616 229.869 24.3594C230.377 24.7487 231.05 24.9434 231.888 24.9434C232.7 24.9434 233.318 24.791 233.741 24.4863C234.164 24.1732 234.376 23.7669 234.376 23.2676ZM31.6826 48.748H24.0908V54.4355H32.9648V57H20.8789V38.5156H32.876V41.1055H24.0908V46.209H31.6826V48.748ZM50.2432 57H47.0312L38.792 43.8857V57H35.5801V38.5156H38.792L47.0566 51.6807V38.5156H50.2432V57ZM64.8428 48.748H57.251V54.4355H66.125V57H54.0391V38.5156H66.0361V41.1055H57.251V46.209H64.8428V48.748ZM72.9043 38.5156L78.2363 52.6836L83.5557 38.5156H87.707V57H84.5078V50.9062L84.8252 42.7559L79.3662 57H77.0684L71.6221 42.7686L71.9395 50.9062V57H68.7402V38.5156H72.9043Z" fill="white"/>
</svg>
